# xmcd
#
# Track frame offsets:
#	150
#	12115
#	24547
#	38887
#	50697
#	63697
#	74680
#	88782
#	102347
#	111525
#	125677
#	136037
#	150147
#	161712
#	175880
#	186165
#	197440
#	211587
#	221300
#	232875
#	243165
#	255962
#	266875
#
# Disc length: 3704 seconds
#
# Revision: 1
# Processed by: cddbd v1.5.1PL0 Copyright (c) Steve Scherf et al.
# Submitted via: audiograbber 1.83.01
#
DISCID=3e0e7617
DTITLE=J. B. Lenoir - If You Love Me
DYEAR=1900
DGENRE=
TTITLE0=Carrie Lee
TTITLE1=Korea Blues
TTITLE2=I'm In Korea
TTITLE3=Eisenhower Blues (Take 1)
TTITLE4=Eisenhower Blues
TTITLE5=Mama, Talk to Your Daughter
TTITLE6=Man, Watch Your Woman
TTITLE7=Sittin' Down Thinkin'
TTITLE8=Mama, Your Daughter's Going To Miss Me
TTITLE9=What Have I done
TTITLE10=Give Me One More Shot
TTITLE11=We Got To Realize (We Can't Go On This Way)
TTITLE12=Fine Girls
TTITLE13=I Lost My Baby
TTITLE14=I'm Gonna Die Someday
TTITLE15=Natural Man
TTITLE16=Don't Dog Your Woman
TTITLE17=Let Me Die With The One I Love
TTITLE18=If I Give My Love To You
TTITLE19=Everybody Wants To Know
TTITLE20=If You Love Me
TTITLE21=J. B.'s Rock
TTITLE22=Low Down Dirty Shame
EXTD=
EXTT0=
EXTT1=
EXTT2=
EXTT3=
EXTT4=
EXTT5=
EXTT6=
EXTT7=
EXTT8=
EXTT9=
EXTT10=
EXTT11=
EXTT12=
EXTT13=
EXTT14=
EXTT15=
EXTT16=
EXTT17=
EXTT18=
EXTT19=
EXTT20=
EXTT21=
EXTT22=
PLAYORDER=
